<?xml version="1.0" standalone="no"?>
<!DOCTYPE svg PUBLIC "-//W3C//DTD SVG 20010904//EN"
 "http://www.w3.org/TR/2001/REC-SVG-20010904/DTD/svg10.dtd">
<svg version="1.0" xmlns="http://www.w3.org/2000/svg"
 width="680.000000pt" height="480.000000pt" viewBox="0 0 680.000000 480.000000"
 preserveAspectRatio="xMidYMid meet">

<g transform="translate(0.000000,480.000000) scale(0.100000,-0.100000)"
fill="#000000" stroke="none">
<path d="M2220 4794 c-547 -55 -996 -242 -1386 -578 -441 -379 -716 -882 -811
-1478 -24 -157 -24 -517 1 -676 74 -472 259 -879 561 -1230 383 -446 924 -735
1520 -814 146 -19 2445 -19 2590 0 694 92 1292 457 1683 1025 206 299 339 639
398 1019 25 157 25 518 1 675 -82 521 -313 985 -671 1347 -369 373 -808 597
-1363 693 -88 15 -218 17 -1293 19 -657 0 -1211 0 -1230 -2z m2055 -1021 l199
-177 -52 -45 c-746 -660 -1281 -1138 -1281 -1143 -1 -4 298 -273 664 -598 366
-325 665 -593 665 -595 0 -5 -390 -350 -400 -353 -8 -3 -1738 1528 -1743 1542
-3 8 1726 1545 1739 1545 6 1 100 -79 209 -176z"/>
</g>
</svg>
