<?xml version="1.0" standalone="no"?>
<!DOCTYPE svg PUBLIC "-//W3C//DTD SVG 20010904//EN"
 "http://www.w3.org/TR/2001/REC-SVG-20010904/DTD/svg10.dtd">
<svg version="1.0" xmlns="http://www.w3.org/2000/svg"
 width="680.000000pt" height="480.000000pt" viewBox="0 0 680.000000 480.000000"
 preserveAspectRatio="xMidYMid meet">

<g transform="translate(0.000000,480.000000) scale(0.100000,-0.100000)"
fill="#000000" stroke="none">
<path d="M2225 4794 c-16 -2 -73 -9 -125 -15 -579 -65 -1158 -379 -1532 -830
-296 -358 -472 -747 -544 -1211 -25 -157 -25 -518 -1 -675 82 -521 313 -985
671 -1347 377 -382 844 -614 1401 -698 72 -10 339 -13 1310 -13 1131 0 1228 1
1333 18 477 77 880 261 1228 561 441 379 716 882 811 1478 24 157 24 517 -1
676 -46 296 -145 589 -278 827 -332 592 -888 1013 -1544 1169 -261 62 -208 60
-1509 62 -655 1 -1203 0 -1220 -2z m1373 -1615 c471 -419 863 -767 869 -773
10 -9 -187 -189 -853 -781 -477 -424 -872 -771 -878 -773 -7 -1 -101 77 -211
175 l-199 177 52 45 c746 660 1281 1138 1281 1143 1 4 -299 274 -665 599
l-666 592 24 23 c55 54 374 334 381 334 4 0 393 -343 865 -761z"/>
</g>
</svg>
