<?xml version="1.0" standalone="no"?>
<!DOCTYPE svg PUBLIC "-//W3C//DTD SVG 20010904//EN"
 "http://www.w3.org/TR/2001/REC-SVG-20010904/DTD/svg10.dtd">
<svg version="1.0" xmlns="http://www.w3.org/2000/svg"
 width="480.000000pt" height="480.000000pt" viewBox="0 0 480.000000 480.000000"
 preserveAspectRatio="xMidYMid meet">

<g transform="translate(0.000000,480.000000) scale(0.100000,-0.100000)"
fill="#000000" stroke="none">
<path d="M2225 4794 c-16 -2 -73 -9 -125 -15 -579 -65 -1158 -379 -1532 -830
-296 -358 -472 -747 -544 -1211 -25 -157 -25 -518 -1 -675 82 -521 313 -985
671 -1347 377 -382 846 -615 1401 -697 135 -20 501 -18 643 5 514 80 961 299
1331 650 29 28 96 100 147 160 299 347 486 756 561 1228 24 157 24 517 -1 676
-46 296 -145 589 -278 827 -369 658 -1011 1100 -1759 1210 -99 15 -451 28
-514 19z m-107 -1615 c471 -419 863 -767 869 -773 10 -9 -187 -189 -853 -781
-477 -424 -872 -771 -878 -773 -7 -1 -101 77 -211 175 l-199 177 52 45 c746
660 1281 1138 1281 1143 1 4 -299 274 -665 599 l-666 592 24 23 c55 54 374
334 381 334 4 0 393 -343 865 -761z m1180 0 c471 -419 863 -767 869 -773 10
-9 -187 -189 -853 -781 -477 -424 -872 -771 -878 -773 -7 -1 -101 77 -211 175
l-199 177 52 45 c746 660 1281 1138 1281 1143 1 4 -299 274 -665 599 l-666
592 24 23 c55 54 374 334 381 334 4 0 393 -343 865 -761z"/>
</g>
</svg>
